<svg width="200" height="200" viewBox="0 0 200 200" xmlns="http://www.w3.org/2000/svg">
  <defs>
    <linearGradient id="bgGradient" x1="0%" y1="0%" x2="100%" y2="100%">
      <stop offset="0%" style="stop-color:#1a1a2e;stop-opacity:1" />
      <stop offset="100%" style="stop-color:#16213e;stop-opacity:1" />
    </linearGradient>
    <linearGradient id="luaGradient" x1="0%" y1="0%" x2="100%" y2="100%">
      <stop offset="0%" style="stop-color:#000080;stop-opacity:1" />
      <stop offset="100%" style="stop-color:#4169e1;stop-opacity:1" />
    </linearGradient>
    <linearGradient id="swiftGradient" x1="0%" y1="0%" x2="100%" y2="100%">
      <stop offset="0%" style="stop-color:#ff5722;stop-opacity:1" />
      <stop offset="100%" style="stop-color:#ff7043;stop-opacity:1" />
    </linearGradient>
  </defs>
  
  <!-- Background with gradient -->
  <rect width="200" height="200" rx="20" fill="url(#bgGradient)"/>
  
  <!-- Lua moon symbol (left) -->
  <g transform="translate(50, 50)">
    <circle cx="20" cy="20" r="25" fill="url(#luaGradient)"/>
    <circle cx="30" cy="15" r="20" fill="#1a1a2e"/>
  </g>
  
  <!-- Swift bird symbol (right) - Official Swift logo -->
  <g transform="translate(110, 55)">
    <!-- Official Swift bird shape - accurate representation -->
    <g transform="scale(0.9)">
      <!-- Swift bird with characteristic swoosh and feathers -->
      <path d="M 38 8 C 36 4, 32 0, 28 0 C 30 4, 32 8, 33 12 C 28 8, 22 4, 16 2 C 20 8, 24 14, 27 20 C 22 16, 16 12, 10 8 C 14 14, 18 20, 22 24 C 16 22, 10 18, 4 14 C 10 20, 16 26, 22 30 C 20 32, 18 34, 16 35 C 22 35, 28 33, 32 28 C 36 32, 40 34, 44 34 C 42 28, 40 22, 40 16 C 40 12, 39 8, 38 8 Z" 
            fill="url(#swiftGradient)"/>
    </g>
  </g>
  
  <!-- Bridge connection -->
  <g opacity="0.8">
    <path d="M 75 70 Q 100 60, 125 70" stroke="#4ecdc4" stroke-width="3" fill="none" stroke-linecap="round"/>
    <circle cx="75" cy="70" r="4" fill="#4ecdc4"/>
    <circle cx="125" cy="70" r="4" fill="#4ecdc4"/>
  </g>
  
  <!-- Main text -->
  <text x="100" y="135" font-family="SF Pro Display, -apple-system, Arial" font-size="32" font-weight="700" 
        text-anchor="middle" fill="#ffffff">LuaKit</text>
  <text x="100" y="155" font-family="SF Pro Display, -apple-system, Arial" font-size="14" font-weight="400"
        text-anchor="middle" fill="#a8dadc">Swift ↔ Lua Bridge</text>
  
  <!-- Version badge -->
  <rect x="60" y="165" width="80" height="20" rx="10" fill="#4ecdc4" opacity="0.9"/>
  <text x="100" y="179" font-family="SF Pro Display, -apple-system, Arial" font-size="11" font-weight="600"
        text-anchor="middle" fill="#1a1a2e">v1.4.0</text>
</svg>